<svg version="1.1" id="Layer_1" xmlns="http://www.w3.org/2000/svg" xmlns:xlink="http://www.w3.org/1999/xlink" x="0px" y="0px" viewBox="0 0 450.93 159.62" style="enable-background:new 0 0 450.93 159.62;" xml:space="preserve"><g><path fill="#D0C8C0" d="M105.52,37.83c9.85,8.21,16.1,22.34,16.1,35.89c0,24.73-20.77,44.77-46.39,44.77c-25.32,0-45.88-19.57-46.37-43.89c-0.44,2.67-0.67,5.41-0.67,8.2c0,27.95,21.9,49.91,49.85,49.91c27.95,0,51.37-21.96,51.37-49.91C129.41,64.67,119.86,46.77,105.52,37.83z"></path></g><g><path fill="#00A0E0" d="M28.84,68.53c0-26.03,17.62-47.93,41.58-54.46C36.54,15.03,9.37,41.51,9.37,74.05c0,33.15,28.18,60.02,62.94,60.02c22.02,0,34.18-6.91,45.73-20.01c-9.66,7.72-19.43,10.93-32.75,10.93C54.11,124.98,28.84,99.71,28.84,68.53z"></path></g><g><path fill="#A09880" d="M85.51,43.13c10.06,5.2,16.91,16.45,16.91,28.26c0,17.06-14.29,30.9-31.91,30.9c-7.48,0-14.35-2.51-19.79-6.68c6.17,7.98,15.99,13.17,27.08,13.17c18.69,0,33.85-14.67,33.85-32.77C111.65,60.49,100.48,46.52,85.51,43.13z"></path></g><g><path fill="#88D0F8" d="M113.83,69.51c0-22.75-17.78-41.2-39.7-41.2c-21.93,0-39.7,18.45-39.7,41.2c0,4.97,0.89,9.71,2.44,14.12c-0.35-2.06-0.57-4.17-0.57-6.33c0-20.25,15.96-36.66,35.64-36.66c19.68,0,35.64,16.41,35.64,36.66c0,9.85-3.8,18.78-9.95,25.37C107.44,95.16,113.83,83.12,113.83,69.51z"></path></g><g><path fill="#1A1A1A" d="M147.38,51.91c-0.72,0-1.08-0.36-1.08-1.09v-3.44c0-0.72,0.36-1.09,1.08-1.09h11.44c0.54,0,0.81,0.36,0.81,0.81v23.81c4.69-3.26,7.75-4.44,11.8-4.44c9.46,0,14.32,6.79,14.32,20.1c0,17.47-5.4,25.9-16.58,25.9c-4.5,0-7.84-1.27-11.44-4.44c-0.99,2.35-2.25,4.07-2.97,4.07c-0.09,0-0.45-0.09-0.72-0.27l-3.78-2.44c-0.18-0.09-0.27-0.27-0.27-0.45c0-0.18,0.09-0.36,0.27-0.63c1.8-2.45,2.52-5.25,2.52-9.51v-46.9H147.38z M159.54,102.8c2.97,2.45,5.67,3.53,9.19,3.53c6.67,0,9.73-5.89,9.73-18.74c0-10.59-2.52-15.12-8.38-15.12c-3.24,0-5.22,0.91-10.54,4.53V102.8z"></path><path fill="#1A1A1A" d="M187.56,51.91c-0.72,0-1.08-0.36-1.08-1.09v-3.44c0-0.72,0.36-1.09,1.08-1.09h11.35c0.63,0,0.9,0.27,0.9,1v47.53c0,4.26,0.09,7.15,0.27,8.24c0.27,2.17,1.62,3.44,3.6,3.44c1.26,0,2.61-0.36,4.05-1.09c0.27-0.09,0.54-0.18,0.72-0.18c0.27,0,0.54,0.27,0.63,0.63l1.08,3.35c0.18,0.45,0.18,0.45,0.18,0.63c0,1-4.24,2.26-7.66,2.26c-4.86,0-8.29-2.35-9.19-6.34c-0.45-1.9-0.45-1.9-0.45-11.14V51.91H187.56z"></path><path fill="#1A1A1A" d="M235.17,105.61c0.72,0,1.08,0.36,1.08,1.09v3.44c0,0.72-0.36,1.09-1.08,1.09h-19.82c-0.72,0-1.08-0.36-1.08-1.09v-3.44c0-0.72,0.36-1.09,1.08-1.09h6.49V73.37h-7.21c-0.81,0-0.99-0.18-0.99-1v-3.53c0-0.91,0.18-1.09,0.99-1.09h12.97c0.81,0,0.99,0.18,0.99,1.09v36.76H235.17z"></path><path fill="#00A0E0" d="M227.95,54.34c0,2.55-2.07,4.63-4.6,4.63c-2.61,0-4.68-2.08-4.68-4.7c0-2.55,2.07-4.63,4.76-4.63C225.88,49.64,227.95,51.8,227.95,54.34z"></path><path fill="#1A1A1A" d="M284.22,105.61c0.72,0,1.08,0.36,1.08,1.09v3.44c0,0.72-0.36,1.09-1.08,1.09h-10.81c-0.81,0-0.99-0.18-0.99-1.09V79.89c0-5.34-1.8-7.52-6.04-7.52c-4.14,0-7.21,1.54-11.8,5.7v27.53h5.05c0.72,0,1.08,0.36,1.08,1.09v3.44c0,0.72-0.36,1.09-1.08,1.09h-16.94c-0.72,0-1.08-0.36-1.08-1.09v-3.44c0-0.72,0.36-1.09,1.08-1.09h5.04V79.08c0-2.81-0.09-3.8-0.54-5.7h-5.14c-0.72,0-1.08-0.36-1.08-1.09v-3.44c0-0.73,0.36-1.09,1.08-1.09h9.1c1.35,0,1.98,1.27,2.79,4.89c5.58-4.53,9.46-6.16,14.5-6.16c4.23,0,7.57,1.54,9.19,4.35c1.26,2.26,1.53,3.89,1.53,9.15v25.62H284.22z"></path><path fill="#00A0E0" d="M304.54,105.61h5.13c0.72,0,1.08,0.36,1.08,1.09v3.44c0,0.72-0.36,1.09-1.08,1.09h-16.94c-0.72,0-1.08-0.36-1.08-1.09v-3.44c0-0.72,0.36-1.09,1.08-1.09h5.05V51.91h-5.5c-0.72,0-1.08-0.36-1.08-1.09v-3.44c0-0.72,0.36-1.09,1.08-1.09h11.26c0.72,0.09,0.99,0.27,0.99,1V105.61z"></path><path fill="#1A1A1A" d="M306.47,87.68l14.32-14.67h-4.41c-0.72,0-1.08-0.36-1.08-1.09v-3.08c0-0.73,0.36-1.09,1.08-1.09h17.03c0.72,0,1.08,0.36,1.08,1.09v3.44c0,0.72-0.36,1.09-1.08,1.09h-4.59l-14.59,14.31l15.68,17.93h4.69c0.72,0,1.08,0.36,1.08,1.09v3.44c0,0.72-0.36,1.09-1.08,1.09h-8.38c-0.72,0-0.99-0.09-1.53-0.72l-18.2-21.55"></path><path fill="#1A1A1A" d="M344.04,91.03c0.45,9.87,4.59,15.3,11.89,15.3c3.24,0,6.49-1,10.45-3.26c0.27-0.18,0.63-0.27,0.9-0.27c0.18,0,0.45,0.18,0.63,0.45l1.62,3.53c0.18,0.45,0.18,0.45,0.18,0.63c0,0.72-0.81,1.36-3.24,2.53c-3.51,1.63-7.3,2.54-11.08,2.54c-11.44,0-18.74-8.87-18.74-22.91c0-13.94,7.03-23.09,17.84-23.09c7.21,0,12.7,3.98,15.05,10.86c0.99,2.9,1.35,6.25,1.35,12.04c0,1.27-0.18,1.63-0.99,1.63H344.04z M363.59,85.42c-0.18-8.6-3.6-13.4-9.55-13.4c-6.04,0-9.46,4.62-10,13.4H363.59z"></path><path fill="#1A1A1A" d="M395.3,105.61c0.72,0,1.08,0.36,1.08,1.09v3.44c0,0.72-0.36,1.09-1.08,1.09h-17.66c-0.63,0-0.99-0.36-0.99-1.09v-3.44c0-0.72,0.36-1.09,0.99-1.09h5.13V82.97c0-5.61-0.18-7.06-0.99-9.6h-4.77c-0.72,0-1.08-0.36-1.08-1.09v-3.44c0-0.73,0.36-1.09,1.08-1.09h8.11c1.53,0,2.79,2.35,3.51,6.34c2.16-2.54,2.61-2.99,3.6-3.98c2.25-2.35,4.78-3.62,7.21-3.62c1.98,0,4.5,0.81,4.5,1.45c0,0.18,0,0.36-0.18,0.72l-2.16,4.98c-0.18,0.27-0.27,0.36-0.45,0.36c-0.09,0-0.27,0-0.36-0.09c-1.53-0.45-2.16-0.63-2.7-0.63c-2.07,0-4.14,1.72-8.56,6.88v25.44H395.3z"></path><path fill="#1A1A1A" d="M428.73,73.55c-2.43-1-3.87-1.27-5.76-1.27c-4.32,0-6.85,2.26-6.85,6.07c0,1.72,0.63,3.35,1.8,4.44c1.26,1.18,1.26,1.18,9.37,5.16c6.76,3.26,9.01,6.25,9.01,11.59c0,7.79-5.68,12.95-14.42,12.95c-5.67,0-13.78-2.63-13.78-4.53v-8.42c0-0.72,0.36-1.09,1.08-1.09h3.78c0.72,0,1.08,0.36,1.08,1.09v5.25c3.42,1.36,5.68,1.81,8.11,1.81c4.32,0,7.21-2.63,7.21-6.61c0-2.99-1.53-4.8-5.77-6.7c-6.12-2.9-7.84-3.89-10.09-5.7c-2.79-2.26-4.14-4.98-4.14-8.51c0-7.33,5.67-12.58,13.69-12.58c3.42,0,7.66,1.09,10.63,2.62c0.72,0.36,0.99,0.82,0.99,1.54v7.88c0,0.72-0.36,1.09-1.08,1.09h-3.78c-0.72,0-1.08-0.36-1.08-1.09V73.55z"></path></g><g><path fill="#00A0E0" d="M157.74,137.55l-5.44-13.81l-1.29-0.17v-1.34h5.13v1.34l-1.48,0.22l3.63,9.74l0.38,1.21h0.07l0.4-1.21l3.77-9.75l-1.65-0.21v-1.34h5.12v1.34l-1.3,0.17l-5.44,13.81H157.74z"></path><path fill="#00A0E0" d="M173.02,137.55v-1.33l1.82-0.29v-12.07l-1.82-0.29v-1.34h1.82h2.2h1.82v1.34l-1.82,0.29v12.1h5.74l0.26-2.42h1.68v4.01H173.02z"></path><path fill="#00A0E0" d="M197.42,137.77c-1.05,0-1.99-0.19-2.82-0.57c-0.83-0.38-1.54-0.91-2.12-1.6s-1.03-1.51-1.34-2.46c-0.31-0.95-0.46-1.99-0.46-3.14v-0.22c0-1.14,0.15-2.18,0.46-3.13c0.31-0.95,0.75-1.77,1.34-2.47s1.29-1.23,2.12-1.61c0.83-0.38,1.77-0.57,2.82-0.57c1.11,0,2.08,0.19,2.92,0.57c0.84,0.38,1.54,0.92,2.11,1.61s1,1.52,1.29,2.47c0.29,0.95,0.43,1.99,0.43,3.13v0.22c0,1.14-0.15,2.19-0.43,3.14c-0.29,0.95-0.72,1.77-1.29,2.46s-1.27,1.23-2.11,1.6C199.51,137.58,198.53,137.77,197.42,137.77z M197.42,136.05c1.08,0,1.95-0.25,2.61-0.76s1.15-1.21,1.47-2.12s0.47-1.96,0.47-3.16v-0.24c0-1.19-0.16-2.24-0.47-3.14c-0.32-0.9-0.81-1.61-1.48-2.11c-0.67-0.51-1.53-0.76-2.6-0.76c-0.97,0-1.8,0.26-2.47,0.77c-0.68,0.51-1.19,1.22-1.54,2.12c-0.35,0.9-0.52,1.94-0.52,3.13v0.24c0,1.19,0.17,2.24,0.52,3.15s0.86,1.62,1.54,2.12C195.63,135.79,196.45,136.05,197.42,136.05z"></path><path fill="#00A0E0" d="M210.88,137.55v-1.33l1.82-0.29v-12.07l-1.82-0.29v-1.34h12.02v3.68h-1.76l-0.25-2.08h-6v4.99h5.99v1.63h-5.99v5.54h6.35l0.25-2.11h1.75v3.67H210.88z"></path><path fill="#00A0E0" d="M230.47,137.55v-1.33l1.82-0.29v-12.07l-1.82-0.29v-1.33h7.24c1.18,0,2.18,0.17,2.99,0.5s1.43,0.81,1.86,1.45c0.42,0.63,0.64,1.4,0.64,2.31c0,0.9-0.21,1.65-0.62,2.26c-0.41,0.61-1,1.07-1.76,1.38c-0.76,0.31-1.66,0.48-2.7,0.5l-3.63,0.06v5.22l1.82,0.29v1.33H230.47z M234.48,129.08h3c1.23,0,2.12-0.22,2.68-0.66c0.56-0.44,0.84-1.09,0.84-1.94c0-0.81-0.27-1.44-0.8-1.91c-0.54-0.47-1.36-0.7-2.48-0.7h-3.22V129.08z M241.18,137.55l-3.61-7.65l2.2-0.02l3,6.12l1.12,0.19v1.36H241.18z"></path><path fill="#00A0E0" d="M257.55,137.77c-1.05,0-1.99-0.19-2.82-0.57c-0.83-0.38-1.54-0.91-2.12-1.6c-0.58-0.69-1.03-1.51-1.34-2.46c-0.31-0.95-0.46-1.99-0.46-3.14v-0.22c0-1.14,0.15-2.18,0.46-3.13c0.31-0.95,0.75-1.77,1.34-2.47c0.58-0.69,1.29-1.23,2.12-1.61c0.83-0.38,1.77-0.57,2.82-0.57c1.11,0,2.08,0.19,2.92,0.57c0.84,0.38,1.54,0.92,2.11,1.61c0.57,0.69,1,1.52,1.29,2.47s0.43,1.99,0.43,3.13v0.22c0,1.14-0.14,2.19-0.43,3.14c-0.29,0.95-0.72,1.77-1.29,2.46c-0.57,0.69-1.27,1.23-2.11,1.6C259.63,137.58,258.66,137.77,257.55,137.77z M257.55,136.05c1.08,0,1.95-0.25,2.61-0.76s1.15-1.21,1.47-2.12c0.31-0.91,0.47-1.96,0.47-3.16v-0.24c0-1.19-0.16-2.24-0.47-3.14c-0.32-0.9-0.81-1.61-1.48-2.11s-1.53-0.76-2.6-0.76c-0.97,0-1.8,0.26-2.47,0.77c-0.68,0.51-1.19,1.22-1.54,2.12c-0.35,0.9-0.52,1.94-0.52,3.13v0.24c0,1.19,0.17,2.24,0.52,3.15c0.35,0.91,0.86,1.62,1.54,2.12C255.75,135.79,256.57,136.05,257.55,136.05z"></path><path fill="#00A0E0" d="M271.03,137.55v-1.33l1.82-0.29v-12.07l-1.82-0.29v-1.34h1.82h2.22l7.96,11.94l0.07-0.02v-10.29l-2-0.29v-1.34h4.01h1.82v1.34l-1.82,0.29v13.69h-2.01l-8.17-12l-0.07,0.02v10.36l2,0.29v1.33H271.03z"></path><path fill="#00A0E0" d="M293.78,137.55v-1.33l1.82-0.29v-12.07l-1.82-0.29v-1.34h1.82h4.54c1.43,0,2.68,0.32,3.75,0.97c1.07,0.65,1.9,1.53,2.49,2.66c0.59,1.13,0.89,2.42,0.89,3.87v0.33c0,1.42-0.29,2.69-0.86,3.82s-1.38,2.03-2.44,2.68c-1.05,0.66-2.29,0.98-3.73,0.98H293.78z M297.79,135.93h2.34c1.03,0,1.91-0.26,2.64-0.79s1.3-1.24,1.7-2.12c0.4-0.89,0.6-1.87,0.6-2.95v-0.35c0-1.12-0.2-2.11-0.6-2.99c-0.4-0.88-0.96-1.58-1.7-2.09c-0.74-0.51-1.62-0.77-2.64-0.77h-2.34V135.93z"></path><path fill="#00A0E0" d="M313.91,137.55v-1.33l1.82-0.29v-12.07l-1.82-0.29v-1.34h12.02v3.68h-1.76l-0.25-2.08h-6v4.99h5.99v1.63h-5.99v5.54h6.35l0.25-2.11h1.75v3.67H313.91z"></path><path fill="#00A0E0" d="M333.49,137.55v-1.33l1.82-0.29v-12.07l-1.82-0.29v-1.33h7.23c1.18,0,2.18,0.17,2.99,0.5c0.81,0.33,1.43,0.81,1.86,1.45c0.42,0.63,0.64,1.4,0.64,2.31c0,0.9-0.21,1.65-0.62,2.26c-0.41,0.61-1,1.07-1.76,1.38c-0.76,0.31-1.66,0.48-2.7,0.5l-3.63,0.06v5.22l1.82,0.29v1.33H333.49z M337.51,129.08h3c1.23,0,2.12-0.22,2.68-0.66c0.56-0.44,0.84-1.09,0.84-1.94c0-0.81-0.27-1.44-0.8-1.91c-0.54-0.47-1.36-0.7-2.49-0.7h-3.22V129.08z M344.21,137.55l-3.61-7.65l2.2-0.02l3,6.12l1.13,0.19v1.36H344.21z"></path><path fill="#00A0E0" d="M355.12,137.55v-1.33l1.82-0.29v-12.07l-1.82-0.29v-1.34h5.83v1.34l-1.82,0.29v5.29h7.76v-5.29l-1.82-0.29v-1.34h1.82h2.2h1.82v1.34l-1.82,0.29v12.07l1.82,0.29v1.33h-5.83v-1.33l1.82-0.29v-5.14h-7.76v5.14l1.82,0.29v1.33H355.12z"></path><path fill="#00A0E0" d="M385.52,137.77c-1.05,0-1.99-0.19-2.82-0.57c-0.83-0.38-1.54-0.91-2.12-1.6c-0.58-0.69-1.03-1.51-1.34-2.46c-0.31-0.95-0.46-1.99-0.46-3.14v-0.22c0-1.14,0.15-2.18,0.46-3.13c0.31-0.95,0.75-1.77,1.34-2.47c0.58-0.69,1.29-1.23,2.12-1.61c0.83-0.38,1.77-0.57,2.82-0.57c1.11,0,2.08,0.19,2.92,0.57c0.84,0.38,1.54,0.92,2.11,1.61c0.57,0.69,1,1.52,1.29,2.47s0.43,1.99,0.43,3.13v0.22c0,1.14-0.14,2.19-0.43,3.14c-0.29,0.95-0.72,1.77-1.29,2.46c-0.57,0.69-1.27,1.23-2.11,1.6C387.6,137.58,386.62,137.77,385.52,137.77z M385.52,136.05c1.08,0,1.95-0.25,2.61-0.76s1.15-1.21,1.47-2.12c0.31-0.91,0.47-1.96,0.47-3.16v-0.24c0-1.19-0.16-2.24-0.47-3.14c-0.32-0.9-0.81-1.61-1.48-2.11s-1.53-0.76-2.6-0.76c-0.97,0-1.8,0.26-2.47,0.77c-0.68,0.51-1.19,1.22-1.54,2.12c-0.35,0.9-0.52,1.94-0.52,3.13v0.24c0,1.19,0.17,2.24,0.52,3.15c0.35,0.91,0.86,1.62,1.54,2.12C383.72,135.79,384.54,136.05,385.52,136.05z"></path><path fill="#00A0E0" d="M407.66,137.77c-1.12,0-2.11-0.21-2.99-0.62c-0.88-0.41-1.57-1-2.07-1.77c-0.51-0.77-0.76-1.69-0.76-2.76v-8.75l-1.82-0.29v-1.34h5.83v1.34l-1.82,0.29v8.75c0,0.76,0.15,1.41,0.46,1.92c0.31,0.52,0.74,0.91,1.29,1.17c0.55,0.26,1.19,0.39,1.91,0.39c0.73,0,1.37-0.13,1.93-0.39c0.56-0.26,1-0.65,1.32-1.17c0.32-0.52,0.47-1.16,0.47-1.94v-8.75l-1.82-0.29v-1.34h5.83v1.34l-1.82,0.29v8.75c0,1.11-0.25,2.05-0.74,2.81c-0.49,0.77-1.19,1.35-2.08,1.75C409.9,137.57,408.85,137.77,407.66,137.77z"></path><path fill="#00A0E0" d="M423.3,137.55v-1.33l1.82-0.29v-12.07l-1.82-0.29v-1.34h1.82h4.54c1.43,0,2.68,0.32,3.75,0.97c1.07,0.65,1.9,1.53,2.49,2.66c0.59,1.13,0.89,2.42,0.89,3.87v0.33c0,1.42-0.29,2.69-0.86,3.82s-1.38,2.03-2.44,2.68c-1.05,0.66-2.29,0.98-3.73,0.98H423.3z M427.31,135.93h2.34c1.03,0,1.91-0.26,2.64-0.79s1.3-1.24,1.7-2.12c0.4-0.89,0.6-1.87,0.6-2.95v-0.35c0-1.12-0.2-2.11-0.6-2.99c-0.4-0.88-0.96-1.58-1.7-2.09c-0.74-0.51-1.62-0.77-2.64-0.77h-2.34V135.93z"></path></g></svg>